# xmcd
#
# Track frame offsets:
#	150
#	16283
#	29595
#	47704
#	59990
#	77903
#	90751
#	116653
#	127813
#	144355
#	156824
#	174291
#	189577
#	205536
#
# Disc length: 2945 seconds
#
# Revision: 1
# Processed by: cddbd v1.5.2PL0 Copyright (c) Steve Scherf et al.
# Submitted via: audiograbber 1.83.01
#
DISCID=b20b7f0e
DTITLE=какефас - ваиды
DYEAR=1900
DGENRE=
TTITLE0=ваиды
TTITLE1=пемте вяомиес стгм немгтиа
TTITLE2=апоье лауяолата лоу
TTITLE3=то аспяо соу ламтгки
TTITLE4=цеитомисса
TTITLE5=тгс аспягс аспяа лоиафоуме
TTITLE6=йаяаисйайгс ЙКщЖТИЙО
TTITLE7=цяалла лоу немгтелемо
TTITLE8=стеяеье г бяусг вяусо лоу
TTITLE9=йаимоуяциа жоуста
TTITLE10=циа лиа кидыяийиытисса
TTITLE11=стг яавг ейеимг тгм ьгкг
TTITLE12=ацапале поукайи лоу
TTITLE13=емас агтос йахотаме
EXTD=
EXTT0=
EXTT1=
EXTT2=
EXTT3=
EXTT4=
EXTT5=
EXTT6=
EXTT7=
EXTT8=
EXTT9=
EXTT10=
EXTT11=
EXTT12=
EXTT13=
PLAYORDER=
